Coordinates
version=1
nRows=88
nColumns=8
inDegrees=no

Units are S.I. units (second, meters, Newtons, ...)
Angles are in radian.

endheader
time	Shoulder_Right1	Shoulder_Right2	Shoulder_Right3	Elbow_Right1	Wrist_Right1	Wrist_Right2	Wrist_Right3
      0.00763000	     -1.01986000	      0.34180100	      0.29266200	      1.58130000	     -0.63040700	     -0.21199300	     -0.75895700
      0.00764000	     -1.02042000	      0.34208000	      0.29276800	      1.57976000	     -0.63087300	     -0.21194400	     -0.75828200
      0.00765000	     -1.02061000	      0.34219700	      0.29267800	      1.57851000	     -0.63138200	     -0.21168600	     -0.75628500
      0.00766000	     -1.02124000	      0.34239500	      0.29239900	      1.57701000	     -0.63226000	     -0.21086900	     -0.75594600
      0.00767000	     -1.02153000	      0.34246400	      0.29232700	      1.57567000	     -0.63260200	     -0.21074700	     -0.75454900
      0.00768000	     -1.02191000	      0.34267800	      0.29205200	      1.57440000	     -0.63366800	     -0.20996000	     -0.75601500
      0.00769000	     -1.02228000	      0.34287500	      0.29152600	      1.57325000	     -0.63479000	     -0.20923300	     -0.75665600
      0.00770000	     -1.02273000	      0.34314500	      0.29156700	      1.57191000	     -0.63569600	     -0.20908000	     -0.75688600
      0.00771000	     -1.02299000	      0.34331900	      0.29126000	      1.57078000	     -0.63682200	     -0.20868400	     -0.75777000
      0.00772000	     -1.02344000	      0.34347200	      0.29080800	      1.56941000	     -0.63704300	     -0.20789500	     -0.75806600
      0.00773000	     -1.02351000	      0.34356700	      0.29056800	      1.56846000	     -0.63802900	     -0.20764300	     -0.75840500
      0.00774000	     -1.02407000	      0.34390000	      0.29032400	      1.56710000	     -0.63868600	     -0.20722200	     -0.75888600
      0.00775000	     -1.02427000	      0.34403900	      0.29011800	      1.56609000	     -0.63955900	     -0.20705300	     -0.75927500
      0.00776000	     -1.02449000	      0.34412200	      0.28983100	      1.56493000	     -0.63999000	     -0.20682000	     -0.75901300
      0.00777000	     -1.02479000	      0.34431100	      0.28942600	      1.56383000	     -0.64056600	     -0.20632800	     -0.75904600
      0.00778000	     -1.02514000	      0.34461700	      0.28946800	      1.56254000	     -0.64089900	     -0.20635100	     -0.75945700
      0.00779000	     -1.02526000	      0.34461700	      0.28935900	      1.56142000	     -0.64091300	     -0.20661500	     -0.75696600
      0.00780000	     -1.02570000	      0.34492800	      0.28907600	      1.56035000	     -0.64160700	     -0.20617000	     -0.75928000
      0.00781000	     -1.02581000	      0.34507800	      0.28905500	      1.55932000	     -0.64176500	     -0.20620500	     -0.75871900
      0.00782000	     -1.02628000	      0.34534700	      0.28886100	      1.55809000	     -0.64209000	     -0.20623000	     -0.75934000
      0.00783000	     -1.02643000	      0.34548100	      0.28888800	      1.55692000	     -0.64170700	     -0.20637600	     -0.75706900
      0.00784000	     -1.02671000	      0.34576700	      0.28880700	      1.55604000	     -0.64238800	     -0.20627600	     -0.75914300
      0.00785000	     -1.02699000	      0.34601700	      0.28883600	      1.55487000	     -0.64164100	     -0.20680700	     -0.75601400
      0.00786000	     -1.02744000	      0.34648500	      0.28908200	      1.55361000	     -0.64167800	     -0.20698500	     -0.75718800
      0.00787000	     -1.02761000	      0.34672400	      0.28899200	      1.55285000	     -0.64195400	     -0.20702400	     -0.75781500
      0.00788000	     -1.02797000	      0.34707400	      0.28891500	      1.55196000	     -0.64190700	     -0.20693800	     -0.75958600
      0.00789000	     -1.02806000	      0.34727100	      0.28931800	      1.55085000	     -0.64114500	     -0.20794300	     -0.75628700
      0.00790000	     -1.02851000	      0.34767400	      0.28936300	      1.54989000	     -0.64145500	     -0.20782200	     -0.75715600
      0.00791000	     -1.02878000	      0.34814600	      0.28980300	      1.54888000	     -0.64088800	     -0.20828200	     -0.75592600
      0.00792000	     -1.02894000	      0.34844000	      0.28967600	      1.54826000	     -0.64097200	     -0.20787000	     -0.75810000
      0.00793000	     -1.02929000	      0.34872300	      0.28942700	      1.54748000	     -0.64084800	     -0.20736400	     -0.75844800
      0.00794000	     -1.02962000	      0.34914900	      0.29031800	      1.54623000	     -0.63992600	     -0.20861100	     -0.75460600
      0.00795000	     -1.02989000	      0.34954000	      0.29002200	      1.54580000	     -0.64092900	     -0.20756600	     -0.75861200
      0.00796000	     -1.03024000	      0.34983700	      0.29040700	      1.54490000	     -0.64031600	     -0.20808000	     -0.75811500
      0.00797000	     -1.03040000	      0.35007500	      0.29053500	      1.54409000	     -0.63998000	     -0.20808100	     -0.75714400
      0.00798000	     -1.03082000	      0.35047500	      0.29074900	      1.54329000	     -0.64005800	     -0.20802100	     -0.75783000
      0.00799000	     -1.03099000	      0.35077200	      0.29106700	      1.54255000	     -0.63981300	     -0.20806600	     -0.75772500
      0.00800000	     -1.03125000	      0.35109500	      0.29135100	      1.54187000	     -0.63981400	     -0.20811300	     -0.75865800
      0.00801000	     -1.03151000	      0.35135200	      0.29157700	      1.54108000	     -0.63923000	     -0.20829300	     -0.75544500
      0.00802000	     -1.03183000	      0.35188200	      0.29189400	      1.54039000	     -0.63916100	     -0.20785800	     -0.75688200
      0.00803000	     -1.03205000	      0.35209300	      0.29225500	      1.53966000	     -0.63898400	     -0.20821100	     -0.75588000
      0.00804000	     -1.03240000	      0.35249400	      0.29221300	      1.53920000	     -0.63912600	     -0.20751200	     -0.75818500
      0.00805000	     -1.03251000	      0.35281500	      0.29228800	      1.53889000	     -0.63979000	     -0.20693700	     -0.76160300
      0.00806000	     -1.03287000	      0.35326600	      0.29287100	      1.53815000	     -0.63936600	     -0.20731600	     -0.75878600
      0.00807000	     -1.03303000	      0.35363700	      0.29292100	      1.53772000	     -0.63960600	     -0.20646600	     -0.76169800
      0.00808000	     -1.03323000	      0.35386900	      0.29248400	      1.53757000	     -0.64072600	     -0.20495900	     -0.76844400
      0.00809000	     -1.03346000	      0.35419500	      0.29353600	      1.53669000	     -0.63939000	     -0.20648100	     -0.75932500
      0.00810000	     -1.03377000	      0.35460800	      0.29400500	      1.53611000	     -0.63936800	     -0.20642700	     -0.76058600
      0.00811000	     -1.03391000	      0.35482400	      0.29422700	      1.53562000	     -0.63924000	     -0.20638900	     -0.75905100
      0.00812000	     -1.03424000	      0.35528100	      0.29470000	      1.53509000	     -0.63914900	     -0.20645100	     -0.75981300
      0.00813000	     -1.03427000	      0.35549100	      0.29476700	      1.53489000	     -0.63955500	     -0.20588100	     -0.76120600
      0.00814000	     -1.03463000	      0.35591000	      0.29544900	      1.53416000	     -0.63920800	     -0.20620600	     -0.75883100
      0.00815000	     -1.03474000	      0.35611800	      0.29576000	      1.53373000	     -0.63903800	     -0.20630400	     -0.75812500
      0.00816000	     -1.03485000	      0.35642900	      0.29637500	      1.53322000	     -0.63853500	     -0.20665200	     -0.75559900
      0.00817000	     -1.03507000	      0.35675900	      0.29665100	      1.53291000	     -0.63879800	     -0.20650600	     -0.75576400
      0.00818000	     -1.03534000	      0.35707500	      0.29724800	      1.53235000	     -0.63855600	     -0.20683500	     -0.75420700
      0.00819000	     -1.03542000	      0.35729600	      0.29694800	      1.53233000	     -0.63938600	     -0.20559300	     -0.75744600
      0.00820000	     -1.03568000	      0.35753800	      0.29739200	      1.53190000	     -0.63936400	     -0.20581000	     -0.75809100
      0.00821000	     -1.03568000	      0.35774300	      0.29737000	      1.53184000	     -0.63958400	     -0.20527400	     -0.75921400
      0.00822000	     -1.03602000	      0.35802900	      0.29794500	      1.53123000	     -0.63929300	     -0.20566900	     -0.75741700
      0.00823000	     -1.03608000	      0.35822100	      0.29802300	      1.53105000	     -0.63948200	     -0.20535200	     -0.75876100
      0.00824000	     -1.03627000	      0.35845700	      0.29829300	      1.53079000	     -0.63972300	     -0.20516700	     -0.75975300
      0.00825000	     -1.03631000	      0.35863900	      0.29823800	      1.53070000	     -0.63978700	     -0.20465300	     -0.76006000
      0.00826000	     -1.03654000	      0.35887200	      0.29858400	      1.53027000	     -0.63954800	     -0.20470100	     -0.75931800
      0.00827000	     -1.03661000	      0.35904000	      0.29886000	      1.52987000	     -0.63921400	     -0.20476000	     -0.75830800
      0.00828000	     -1.03681000	      0.35922800	      0.29901600	      1.52962000	     -0.63914200	     -0.20471100	     -0.75914800
      0.00829000	     -1.03676000	      0.35931700	      0.29927200	      1.52940000	     -0.63893600	     -0.20492200	     -0.75816800
      0.00830000	     -1.03699000	      0.35957900	      0.29897900	      1.52938000	     -0.63963400	     -0.20394000	     -0.76222600
      0.00831000	     -1.03705000	      0.35970300	      0.29954500	      1.52889000	     -0.63877400	     -0.20468600	     -0.75890500
      0.00832000	     -1.03708000	      0.35981000	      0.29956800	      1.52875000	     -0.63879600	     -0.20457200	     -0.75995000
      0.00833000	     -1.03717000	      0.35991900	      0.29949700	      1.52864000	     -0.63869300	     -0.20440800	     -0.75938400
      0.00834000	     -1.03738000	      0.36019100	      0.29977300	      1.52827000	     -0.63837800	     -0.20449100	     -0.75896000
      0.00835000	     -1.03737000	      0.36028500	      0.29980100	      1.52820000	     -0.63854500	     -0.20443400	     -0.75976900
      0.00836000	     -1.03750000	      0.36045100	      0.30027000	      1.52784000	     -0.63781000	     -0.20530100	     -0.75797600
      0.00837000	     -1.03745000	      0.36049100	      0.30025200	      1.52785000	     -0.63804900	     -0.20512500	     -0.75952700
      0.00838000	     -1.03764000	      0.36065700	      0.30000500	      1.52780000	     -0.63835700	     -0.20453100	     -0.76172500
      0.00839000	     -1.03768000	      0.36079900	      0.30051000	      1.52755000	     -0.63792000	     -0.20525600	     -0.75989000
      0.00840000	     -1.03764000	      0.36088400	      0.30034900	      1.52761000	     -0.63822700	     -0.20501300	     -0.76184300
      0.00841000	     -1.03768000	      0.36089300	      0.30036500	      1.52752000	     -0.63788100	     -0.20524100	     -0.75996200
      0.00842000	     -1.03781000	      0.36117400	      0.30063600	      1.52732000	     -0.63772300	     -0.20539400	     -0.76079700
      0.00843000	     -1.03772000	      0.36113200	      0.30055000	      1.52729000	     -0.63772400	     -0.20540400	     -0.76006500
      0.00844000	     -1.03780000	      0.36127200	      0.30075600	      1.52710000	     -0.63728400	     -0.20597700	     -0.75959900
      0.00845000	     -1.03777000	      0.36133000	      0.30064300	      1.52717000	     -0.63748700	     -0.20562500	     -0.76093000
      0.00846000	     -1.03778000	      0.36137400	      0.30051700	      1.52719000	     -0.63744600	     -0.20567600	     -0.76087400
      0.00847000	     -1.03773000	      0.36146300	      0.30073400	      1.52704000	     -0.63685300	     -0.20599500	     -0.75950400
      0.00848000	     -1.03769000	      0.36147200	      0.30076600	      1.52701000	     -0.63684900	     -0.20614900	     -0.76070100
      0.00849000	     -1.03769000	      0.36154100	      0.30042900	      1.52719000	     -0.63700800	     -0.20564700	     -0.76073800
      0.00850000	     -1.03774000	      0.36163000	      0.30051100	      1.52709000	     -0.63696700	     -0.20571100	     -0.76174300
